<svg width="138" height="152" viewBox="0 0 138 152" fill="none" xmlns="http://www.w3.org/2000/svg">
<path d="M67.4461 47.5378C66.4806 47.2968 65.2418 47.1836 63.7298 47.1982C62.2745 47.1064 60.5708 47.224 58.6187 47.5511C56.7234 47.7717 54.5922 48.2427 52.2249 48.9639C44.3069 51.3763 39.0747 55.8696 36.5282 62.4439C33.9568 68.9365 34.0638 76.754 36.8493 85.8964C39.6845 95.2021 44.0203 101.82 49.8567 105.751C55.7747 109.658 62.5702 110.442 70.2433 108.104C72.2841 107.482 74.165 106.775 75.8863 105.983C77.5826 105.11 79.1033 104.245 80.4482 103.389C81.7932 102.533 82.9057 101.793 83.7858 101.168L83.1278 90.6637L92.0508 90.086L93.3171 105.222C93.3171 105.222 92.5436 105.904 90.9964 107.267C89.4244 108.549 87.077 110.067 83.954 111.821C80.9127 113.551 77.1881 115.087 72.7801 116.43C65.76 118.569 59.1653 118.883 52.996 117.373C46.9084 115.838 41.578 112.689 37.0049 107.928C32.407 103.084 28.8859 96.7973 26.4416 89.0674C24.1038 81.3943 23.4646 74.3188 24.5239 67.8408C25.64 61.2563 28.3377 55.6173 32.6169 50.9237C36.8712 46.1485 42.5208 42.7323 49.5657 40.6751C54.9532 39.0337 59.4288 38.2053 62.9924 38.1901C66.6127 38.0683 69.3068 38.2734 71.0745 38.8052C72.899 39.2306 73.8237 39.4841 73.8486 39.5657L80.8698 52.9484L73.1032 57.3218L67.4461 47.5378Z" fill="url(#paint0_linear_83_11)"/>
<path d="M134.274 57.2948V68.0468H106.37V145.999H93.954V68.0468H66.05V57.2948H134.274Z" fill="url(#paint1_linear_83_11)"/>
<path d="M83.7535 122.823H86.8575V144.999H83.7535V122.823Z" fill="url(#paint2_linear_83_11)"/>
<path d="M90.4012 121.307L90.4081 122.762L80.0132 122.811L80.0063 121.356L90.4012 121.307Z" fill="url(#paint3_linear_83_11)"/>
<path d="M90.4087 144.34L90.4032 145.795L80.0083 145.756L80.0138 144.301L90.4087 144.34Z" fill="url(#paint4_linear_83_11)"/>
<path d="M83.56 57V32.68L86.536 32.168V40.68C87.0907 40.4667 87.6773 40.3067 88.296 40.2C88.936 40.072 89.5653 40.008 90.184 40.008C91.5067 40.008 92.6053 40.2 93.48 40.584C94.3547 40.9467 95.048 41.4693 95.56 42.152C96.0933 42.8133 96.4667 43.6133 96.68 44.552C96.8933 45.4907 97 46.5253 97 47.656V57H94.024V48.296C94.024 47.272 93.9493 46.3973 93.8 45.672C93.672 44.9467 93.448 44.36 93.128 43.912C92.808 43.464 92.3813 43.144 91.848 42.952C91.3147 42.7387 90.6533 42.632 89.864 42.632C89.544 42.632 89.2133 42.6533 88.872 42.696C88.5307 42.7387 88.2 42.792 87.88 42.856C87.5813 42.8987 87.304 42.952 87.048 43.016C86.8133 43.08 86.6427 43.1333 86.536 43.176V57H83.56ZM107.473 54.856C108.177 54.856 108.796 54.8453 109.329 54.824C109.884 54.7813 110.343 54.7173 110.705 54.632V49.672C110.492 49.5653 110.14 49.48 109.649 49.416C109.18 49.3307 108.604 49.288 107.921 49.288C107.473 49.288 106.993 49.32 106.481 49.384C105.991 49.448 105.532 49.5867 105.105 49.8C104.7 49.992 104.359 50.2693 104.081 50.632C103.804 50.9733 103.665 51.432 103.665 52.008C103.665 53.0747 104.007 53.8213 104.689 54.248C105.372 54.6533 106.3 54.856 107.473 54.856ZM107.217 39.944C108.412 39.944 109.415 40.104 110.225 40.424C111.057 40.7227 111.719 41.16 112.209 41.736C112.721 42.2907 113.084 42.9627 113.297 43.752C113.511 44.52 113.617 45.3733 113.617 46.312V56.712C113.361 56.7547 112.999 56.8187 112.529 56.904C112.081 56.968 111.569 57.032 110.993 57.096C110.417 57.16 109.788 57.2133 109.105 57.256C108.444 57.32 107.783 57.352 107.121 57.352C106.183 57.352 105.319 57.256 104.529 57.064C103.74 56.872 103.057 56.5733 102.481 56.168C101.905 55.7413 101.457 55.1867 101.137 54.504C100.817 53.8213 100.657 53 100.657 52.04C100.657 51.1227 100.839 50.3333 101.201 49.672C101.585 49.0107 102.097 48.4773 102.737 48.072C103.377 47.6667 104.124 47.368 104.977 47.176C105.831 46.984 106.727 46.888 107.665 46.888C107.964 46.888 108.273 46.9093 108.593 46.952C108.913 46.9733 109.212 47.016 109.489 47.08C109.788 47.1227 110.044 47.1653 110.257 47.208C110.471 47.2507 110.62 47.2827 110.705 47.304V46.472C110.705 45.9813 110.652 45.5013 110.545 45.032C110.439 44.5413 110.247 44.1147 109.969 43.752C109.692 43.368 109.308 43.0693 108.817 42.856C108.348 42.6213 107.729 42.504 106.961 42.504C105.98 42.504 105.116 42.5787 104.369 42.728C103.644 42.856 103.1 42.9947 102.737 43.144L102.385 40.68C102.769 40.5093 103.409 40.3493 104.305 40.2C105.201 40.0293 106.172 39.944 107.217 39.944ZM121.344 40.36H127.648V42.856H121.344V50.536C121.344 51.368 121.408 52.0613 121.536 52.616C121.664 53.1493 121.856 53.576 122.112 53.896C122.368 54.1947 122.688 54.408 123.072 54.536C123.456 54.664 123.904 54.728 124.416 54.728C125.312 54.728 126.027 54.632 126.56 54.44C127.115 54.2267 127.499 54.0773 127.712 53.992L128.288 56.456C127.989 56.6053 127.467 56.7867 126.72 57C125.973 57.2347 125.12 57.352 124.16 57.352C123.029 57.352 122.091 57.2133 121.344 56.936C120.619 56.6373 120.032 56.2 119.584 55.624C119.136 55.048 118.816 54.344 118.624 53.512C118.453 52.6587 118.368 51.6773 118.368 50.568V35.72L121.344 35.208V40.36Z" fill="url(#paint5_linear_83_11)"/>
<defs>
<linearGradient id="paint0_linear_83_11" x1="35.4558" y1="10.8025" x2="68.3437" y2="118.747" gradientUnits="userSpaceOnUse">
<stop stop-color="#001C5A"/>
<stop offset="1" stop-color="#0B5CC2"/>
</linearGradient>
<linearGradient id="paint1_linear_83_11" x1="100.502" y1="24.9988" x2="100.502" y2="144.999" gradientUnits="userSpaceOnUse">
<stop stop-color="#001C5A"/>
<stop offset="0.979167" stop-color="#0B5CC2"/>
<stop offset="1" stop-color="#2A6CC7"/>
</linearGradient>
<linearGradient id="paint2_linear_83_11" x1="85.5015" y1="114.999" x2="85.5015" y2="151.999" gradientUnits="userSpaceOnUse">
<stop stop-color="#001C5A"/>
<stop offset="1" stop-color="#2A6CC7"/>
</linearGradient>
<linearGradient id="paint3_linear_83_11" x1="94.0119" y1="122.5" x2="77.0121" y2="122.581" gradientUnits="userSpaceOnUse">
<stop stop-color="#001C5A"/>
<stop offset="1" stop-color="#2A6CC7"/>
</linearGradient>
<linearGradient id="paint4_linear_83_11" x1="94.0091" y1="145.564" x2="77.0093" y2="145.5" gradientUnits="userSpaceOnUse">
<stop stop-color="#001C5A"/>
<stop offset="1" stop-color="#2A6CC7"/>
</linearGradient>
<linearGradient id="paint5_linear_83_11" x1="105" y1="27" x2="105" y2="64" gradientUnits="userSpaceOnUse">
<stop stop-color="#001C5A"/>
<stop offset="1" stop-color="#2A6CC7"/>
</linearGradient>
</defs>
</svg>
